%TF.GenerationSoftware,KiCad,Pcbnew,8.0.3*%
%TF.CreationDate,2024-09-20T13:19:38-05:00*%
%TF.ProjectId,Rick_LiteX-CNC,5269636b-5f4c-4697-9465-582d434e432e,rev?*%
%TF.SameCoordinates,Original*%
%TF.FileFunction,Soldermask,Bot*%
%TF.FilePolarity,Negative*%
%FSLAX46Y46*%
G04 Gerber Fmt 4.6, Leading zero omitted, Abs format (unit mm)*
G04 Created by KiCad (PCBNEW 8.0.3) date 2024-09-20 13:19:38*
%MOMM*%
%LPD*%
G01*
G04 APERTURE LIST*
%ADD10R,3.000000X3.000000*%
%ADD11C,3.000000*%
%ADD12R,1.700000X1.700000*%
%ADD13C,6.100000*%
%ADD14O,1.700000X1.700000*%
%ADD15C,1.000000*%
%ADD16C,0.650000*%
%ADD17O,2.100000X1.000000*%
%ADD18O,1.800000X1.000000*%
%ADD19O,3.300000X1.500000*%
%ADD20O,2.300000X1.500000*%
G04 APERTURE END LIST*
D10*
%TO.C,J20*%
X210800000Y-127200000D03*
D11*
X210800000Y-132280000D03*
%TD*%
D10*
%TO.C,J19*%
X210800000Y-116300000D03*
D11*
X210800000Y-121380000D03*
%TD*%
D10*
%TO.C,J18*%
X210800000Y-105560000D03*
D11*
X210800000Y-110640000D03*
%TD*%
D10*
%TO.C,J17*%
X210800000Y-94560000D03*
D11*
X210800000Y-99640000D03*
%TD*%
D12*
%TO.C,J16*%
X192200000Y-93000000D03*
%TD*%
%TO.C,J15*%
X194700000Y-80800000D03*
%TD*%
D10*
%TO.C,J11*%
X210800000Y-83660000D03*
D11*
X210800000Y-88740000D03*
%TD*%
D10*
%TO.C,J10*%
X210800000Y-72660000D03*
D11*
X210800000Y-77740000D03*
%TD*%
D10*
%TO.C,J3*%
X210800000Y-61800000D03*
D11*
X210800000Y-66880000D03*
%TD*%
D10*
%TO.C,J2*%
X210800000Y-50800000D03*
D11*
X210800000Y-55880000D03*
%TD*%
D13*
%TO.C,Module1*%
X127420000Y-109700000D03*
X127420000Y-61700000D03*
X94420000Y-109700000D03*
X94420000Y-61700000D03*
%TD*%
D12*
%TO.C,J14*%
X98900000Y-94600000D03*
%TD*%
%TO.C,J4*%
X126660000Y-54600000D03*
D14*
X129200000Y-54600000D03*
X131740000Y-54600000D03*
%TD*%
D11*
%TO.C,H4*%
X85000000Y-128500000D03*
%TD*%
D12*
%TO.C,J8*%
X187675000Y-63600000D03*
D14*
X185135000Y-63600000D03*
X182595000Y-63600000D03*
X180055000Y-63600000D03*
X177515000Y-63600000D03*
%TD*%
D11*
%TO.C,H1*%
X85000000Y-54000000D03*
%TD*%
D12*
%TO.C,J7*%
X157460000Y-97800000D03*
D14*
X160000000Y-97800000D03*
X162540000Y-97800000D03*
X165080000Y-97800000D03*
X167620000Y-97800000D03*
%TD*%
D15*
%TO.C,TP2*%
X159000000Y-60600000D03*
%TD*%
D11*
%TO.C,H2*%
X198500000Y-54000000D03*
%TD*%
D12*
%TO.C,J9*%
X172320000Y-97800000D03*
D14*
X174860000Y-97800000D03*
X177400000Y-97800000D03*
X179940000Y-97800000D03*
X182480000Y-97800000D03*
%TD*%
D16*
%TO.C,J12*%
X85787500Y-91110000D03*
X85787500Y-96890000D03*
D17*
X86287500Y-89680000D03*
D18*
X82137500Y-89680000D03*
D17*
X86287500Y-98320000D03*
D18*
X82137500Y-98320000D03*
%TD*%
D12*
%TO.C,J5*%
X118960000Y-52260000D03*
D14*
X118960000Y-54800000D03*
X116420000Y-52260000D03*
X116420000Y-54800000D03*
X113880000Y-52260000D03*
X113880000Y-54800000D03*
X111340000Y-52260000D03*
X111340000Y-54800000D03*
X108800000Y-52260000D03*
X108800000Y-54800000D03*
X106260000Y-52260000D03*
X106260000Y-54800000D03*
X103720000Y-52260000D03*
X103720000Y-54800000D03*
%TD*%
D10*
%TO.C,J13*%
X84200000Y-113140000D03*
D11*
X84200000Y-108060000D03*
%TD*%
D19*
%TO.C,J1*%
X88270000Y-83050000D03*
X88270000Y-68550000D03*
D20*
X82310000Y-68550000D03*
X82310000Y-83050000D03*
%TD*%
D15*
%TO.C,TP3*%
X165000000Y-112050000D03*
%TD*%
D11*
%TO.C,H3*%
X198500000Y-128500000D03*
%TD*%
D12*
%TO.C,J6*%
X138660000Y-61140000D03*
D14*
X141200000Y-61140000D03*
X138660000Y-63680000D03*
X141200000Y-63680000D03*
X138660000Y-66220000D03*
X141200000Y-66220000D03*
X138660000Y-68760000D03*
X141200000Y-68760000D03*
X138660000Y-71300000D03*
X141200000Y-71300000D03*
X138660000Y-73840000D03*
X141200000Y-73840000D03*
X138660000Y-76380000D03*
X141200000Y-76380000D03*
X138660000Y-78920000D03*
X141200000Y-78920000D03*
X138660000Y-81460000D03*
X141200000Y-81460000D03*
X138660000Y-84000000D03*
X141200000Y-84000000D03*
X138660000Y-86540000D03*
X141200000Y-86540000D03*
X138660000Y-89080000D03*
X141200000Y-89080000D03*
X138660000Y-91620000D03*
X141200000Y-91620000D03*
X138660000Y-94160000D03*
X141200000Y-94160000D03*
X138660000Y-96700000D03*
X141200000Y-96700000D03*
X138660000Y-99240000D03*
X141200000Y-99240000D03*
X138660000Y-101780000D03*
X141200000Y-101780000D03*
X138660000Y-104320000D03*
X141200000Y-104320000D03*
X138660000Y-106860000D03*
X141200000Y-106860000D03*
X138660000Y-109400000D03*
X141200000Y-109400000D03*
%TD*%
M02*
