%TF.GenerationSoftware,KiCad,Pcbnew,8.0.3*%
%TF.CreationDate,2024-09-20T13:19:38-05:00*%
%TF.ProjectId,Rick_LiteX-CNC,5269636b-5f4c-4697-9465-582d434e432e,rev?*%
%TF.SameCoordinates,Original*%
%TF.FileFunction,Paste,Top*%
%TF.FilePolarity,Positive*%
%FSLAX46Y46*%
G04 Gerber Fmt 4.6, Leading zero omitted, Abs format (unit mm)*
G04 Created by KiCad (PCBNEW 8.0.3) date 2024-09-20 13:19:38*
%MOMM*%
%LPD*%
G01*
G04 APERTURE LIST*
G04 Aperture macros list*
%AMRoundRect*
0 Rectangle with rounded corners*
0 $1 Rounding radius*
0 $2 $3 $4 $5 $6 $7 $8 $9 X,Y pos of 4 corners*
0 Add a 4 corners polygon primitive as box body*
4,1,4,$2,$3,$4,$5,$6,$7,$8,$9,$2,$3,0*
0 Add four circle primitives for the rounded corners*
1,1,$1+$1,$2,$3*
1,1,$1+$1,$4,$5*
1,1,$1+$1,$6,$7*
1,1,$1+$1,$8,$9*
0 Add four rect primitives between the rounded corners*
20,1,$1+$1,$2,$3,$4,$5,0*
20,1,$1+$1,$4,$5,$6,$7,0*
20,1,$1+$1,$6,$7,$8,$9,0*
20,1,$1+$1,$8,$9,$2,$3,0*%
G04 Aperture macros list end*
%ADD10RoundRect,0.100000X-0.637500X-0.100000X0.637500X-0.100000X0.637500X0.100000X-0.637500X0.100000X0*%
%ADD11RoundRect,0.250000X-0.250000X-0.475000X0.250000X-0.475000X0.250000X0.475000X-0.250000X0.475000X0*%
%ADD12RoundRect,0.150000X-0.587500X-0.150000X0.587500X-0.150000X0.587500X0.150000X-0.587500X0.150000X0*%
%ADD13RoundRect,0.243750X-0.243750X-0.456250X0.243750X-0.456250X0.243750X0.456250X-0.243750X0.456250X0*%
%ADD14R,0.700000X0.200000*%
%ADD15RoundRect,0.250000X0.475000X-0.250000X0.475000X0.250000X-0.475000X0.250000X-0.475000X-0.250000X0*%
%ADD16RoundRect,0.250000X-0.475000X0.250000X-0.475000X-0.250000X0.475000X-0.250000X0.475000X0.250000X0*%
%ADD17RoundRect,0.075000X-0.075000X0.662500X-0.075000X-0.662500X0.075000X-0.662500X0.075000X0.662500X0*%
%ADD18RoundRect,0.075000X-0.662500X0.075000X-0.662500X-0.075000X0.662500X-0.075000X0.662500X0.075000X0*%
%ADD19R,1.200000X3.700000*%
%ADD20RoundRect,0.250000X0.250000X0.475000X-0.250000X0.475000X-0.250000X-0.475000X0.250000X-0.475000X0*%
%ADD21RoundRect,0.243750X-0.456250X0.243750X-0.456250X-0.243750X0.456250X-0.243750X0.456250X0.243750X0*%
%ADD22RoundRect,0.250000X0.300000X-2.050000X0.300000X2.050000X-0.300000X2.050000X-0.300000X-2.050000X0*%
%ADD23RoundRect,0.250000X2.375000X-2.025000X2.375000X2.025000X-2.375000X2.025000X-2.375000X-2.025000X0*%
%ADD24RoundRect,0.100000X-0.225000X-0.100000X0.225000X-0.100000X0.225000X0.100000X-0.225000X0.100000X0*%
%ADD25RoundRect,0.100000X0.100000X-0.225000X0.100000X0.225000X-0.100000X0.225000X-0.100000X-0.225000X0*%
%ADD26R,0.800000X0.500000*%
%ADD27R,0.800000X0.400000*%
%ADD28R,1.400000X0.250000*%
%ADD29RoundRect,0.150000X0.150000X-0.512500X0.150000X0.512500X-0.150000X0.512500X-0.150000X-0.512500X0*%
%ADD30RoundRect,0.243750X0.243750X0.456250X-0.243750X0.456250X-0.243750X-0.456250X0.243750X-0.456250X0*%
%ADD31R,3.250000X5.500000*%
%ADD32RoundRect,0.250000X0.450000X-0.262500X0.450000X0.262500X-0.450000X0.262500X-0.450000X-0.262500X0*%
%ADD33R,2.600000X0.300000*%
%ADD34RoundRect,0.250000X0.262500X0.450000X-0.262500X0.450000X-0.262500X-0.450000X0.262500X-0.450000X0*%
%ADD35RoundRect,0.218750X0.381250X-0.218750X0.381250X0.218750X-0.381250X0.218750X-0.381250X-0.218750X0*%
%ADD36R,0.400000X0.900000*%
%ADD37R,1.000000X0.500000*%
%ADD38R,1.500000X0.800000*%
%ADD39R,0.500000X0.800000*%
%ADD40R,0.400000X0.800000*%
%ADD41RoundRect,0.250000X-1.825000X-0.700000X1.825000X-0.700000X1.825000X0.700000X-1.825000X0.700000X0*%
%ADD42R,0.900000X0.800000*%
G04 APERTURE END LIST*
D10*
%TO.C,U4*%
X195075000Y-94950000D03*
X195075000Y-95600000D03*
X195075000Y-96250000D03*
X195075000Y-96900000D03*
X195075000Y-97550000D03*
X195075000Y-98200000D03*
X195075000Y-98850000D03*
X195075000Y-99500000D03*
X195075000Y-100150000D03*
X195075000Y-100800000D03*
X200800000Y-100800000D03*
X200800000Y-100150000D03*
X200800000Y-99500000D03*
X200800000Y-98850000D03*
X200800000Y-98200000D03*
X200800000Y-97550000D03*
X200800000Y-96900000D03*
X200800000Y-96250000D03*
X200800000Y-95600000D03*
X200800000Y-94950000D03*
%TD*%
%TO.C,U3*%
X195087500Y-84750000D03*
X195087500Y-85400000D03*
X195087500Y-86050000D03*
X195087500Y-86700000D03*
X195087500Y-87350000D03*
X195087500Y-88000000D03*
X195087500Y-88650000D03*
X195087500Y-89300000D03*
X195087500Y-89950000D03*
X195087500Y-90600000D03*
X200812500Y-90600000D03*
X200812500Y-89950000D03*
X200812500Y-89300000D03*
X200812500Y-88650000D03*
X200812500Y-88000000D03*
X200812500Y-87350000D03*
X200812500Y-86700000D03*
X200812500Y-86050000D03*
X200812500Y-85400000D03*
X200812500Y-84750000D03*
%TD*%
D11*
%TO.C,C8*%
X200850000Y-92900000D03*
X202750000Y-92900000D03*
%TD*%
%TO.C,C6*%
X200350000Y-81800000D03*
X202250000Y-81800000D03*
%TD*%
%TO.C,C9*%
X186250000Y-91400000D03*
X188150000Y-91400000D03*
%TD*%
D12*
%TO.C,U1*%
X83862500Y-62650000D03*
X83862500Y-64550000D03*
X85737500Y-63600000D03*
%TD*%
D13*
%TO.C,D5*%
X147725000Y-71880000D03*
X149600000Y-71880000D03*
%TD*%
D14*
%TO.C,Module1*%
X129420000Y-93000000D03*
X126340000Y-93000000D03*
X129420000Y-92600000D03*
X126340000Y-92600000D03*
X129420000Y-92200000D03*
X126340000Y-92200000D03*
X129420000Y-91800000D03*
X126340000Y-91800000D03*
X129420000Y-91400000D03*
X126340000Y-91400000D03*
X129420000Y-91000000D03*
X126340000Y-91000000D03*
X129420000Y-90600000D03*
X126340000Y-90600000D03*
X129420000Y-90200000D03*
X126340000Y-90200000D03*
X129420000Y-89800000D03*
X126340000Y-89800000D03*
X129420000Y-89400000D03*
X126340000Y-89400000D03*
X129420000Y-89000000D03*
X126340000Y-89000000D03*
X129420000Y-88600000D03*
X126340000Y-88600000D03*
X129420000Y-88200000D03*
X126340000Y-88200000D03*
X129420000Y-87800000D03*
X126340000Y-87800000D03*
X129420000Y-87400000D03*
X126340000Y-87400000D03*
X129420000Y-87000000D03*
X126340000Y-87000000D03*
X129420000Y-86600000D03*
X126340000Y-86600000D03*
X129420000Y-86200000D03*
X126340000Y-86200000D03*
X129420000Y-85800000D03*
X126340000Y-85800000D03*
X129420000Y-85400000D03*
X126340000Y-85400000D03*
X129420000Y-85000000D03*
X126340000Y-85000000D03*
X129420000Y-84600000D03*
X126340000Y-84600000D03*
X129420000Y-84200000D03*
X126340000Y-84200000D03*
X129420000Y-83800000D03*
X126340000Y-83800000D03*
X129420000Y-83400000D03*
X126340000Y-83400000D03*
X129420000Y-83000000D03*
X126340000Y-83000000D03*
X129420000Y-82600000D03*
X126340000Y-82600000D03*
X129420000Y-82200000D03*
X126340000Y-82200000D03*
X129420000Y-81800000D03*
X126340000Y-81800000D03*
X129420000Y-81400000D03*
X126340000Y-81400000D03*
X129420000Y-81000000D03*
X126340000Y-81000000D03*
X129420000Y-80600000D03*
X126340000Y-80600000D03*
X129420000Y-80200000D03*
X126340000Y-80200000D03*
X129420000Y-79800000D03*
X126340000Y-79800000D03*
X129420000Y-79400000D03*
X126340000Y-79400000D03*
X129420000Y-79000000D03*
X126340000Y-79000000D03*
X129420000Y-78600000D03*
X126340000Y-78600000D03*
X129420000Y-78200000D03*
X126340000Y-78200000D03*
X129420000Y-77800000D03*
X126340000Y-77800000D03*
X129420000Y-77400000D03*
X126340000Y-77400000D03*
X129420000Y-77000000D03*
X126340000Y-77000000D03*
X129420000Y-76600000D03*
X126340000Y-76600000D03*
X129420000Y-76200000D03*
X126340000Y-76200000D03*
X129420000Y-75800000D03*
X126340000Y-75800000D03*
X129420000Y-75400000D03*
X126340000Y-75400000D03*
X129420000Y-75000000D03*
X126340000Y-75000000D03*
X129420000Y-74600000D03*
X126340000Y-74600000D03*
X129420000Y-74200000D03*
X126340000Y-74200000D03*
X129420000Y-73800000D03*
X126340000Y-73800000D03*
X129420000Y-73400000D03*
X126340000Y-73400000D03*
X95500000Y-93000000D03*
X92420000Y-93000000D03*
X95500000Y-92600000D03*
X92420000Y-92600000D03*
X95500000Y-92200000D03*
X92420000Y-92200000D03*
X95500000Y-91800000D03*
X92420000Y-91800000D03*
X95500000Y-91400000D03*
X92420000Y-91400000D03*
X95500000Y-91000000D03*
X92420000Y-91000000D03*
X95500000Y-90600000D03*
X92420000Y-90600000D03*
X95500000Y-90200000D03*
X92420000Y-90200000D03*
X95500000Y-89800000D03*
X92420000Y-89800000D03*
X95500000Y-89400000D03*
X92420000Y-89400000D03*
X95500000Y-89000000D03*
X92420000Y-89000000D03*
X95500000Y-88600000D03*
X92420000Y-88600000D03*
X95500000Y-88200000D03*
X92420000Y-88200000D03*
X95500000Y-87800000D03*
X92420000Y-87800000D03*
X95500000Y-87400000D03*
X92420000Y-87400000D03*
X95500000Y-87000000D03*
X92420000Y-87000000D03*
X95500000Y-86600000D03*
X92420000Y-86600000D03*
X95500000Y-86200000D03*
X92420000Y-86200000D03*
X95500000Y-85800000D03*
X92420000Y-85800000D03*
X95500000Y-85400000D03*
X92420000Y-85400000D03*
X95500000Y-85000000D03*
X92420000Y-85000000D03*
X95500000Y-84600000D03*
X92420000Y-84600000D03*
X95500000Y-84200000D03*
X92420000Y-84200000D03*
X95500000Y-83800000D03*
X92420000Y-83800000D03*
X95500000Y-83400000D03*
X92420000Y-83400000D03*
X95500000Y-83000000D03*
X92420000Y-83000000D03*
X95500000Y-82600000D03*
X92420000Y-82600000D03*
X95500000Y-82200000D03*
X92420000Y-82200000D03*
X95500000Y-81800000D03*
X92420000Y-81800000D03*
X95500000Y-81400000D03*
X92420000Y-81400000D03*
X95500000Y-81000000D03*
X92420000Y-81000000D03*
X95500000Y-80600000D03*
X92420000Y-80600000D03*
X95500000Y-80200000D03*
X92420000Y-80200000D03*
X95500000Y-79800000D03*
X92420000Y-79800000D03*
X95500000Y-79400000D03*
X92420000Y-79400000D03*
X95500000Y-79000000D03*
X92420000Y-79000000D03*
X95500000Y-78600000D03*
X92420000Y-78600000D03*
X95500000Y-78200000D03*
X92420000Y-78200000D03*
X95500000Y-77800000D03*
X92420000Y-77800000D03*
X95500000Y-77400000D03*
X92420000Y-77400000D03*
X95500000Y-77000000D03*
X92420000Y-77000000D03*
X95500000Y-76600000D03*
X92420000Y-76600000D03*
X95500000Y-76200000D03*
X92420000Y-76200000D03*
X95500000Y-75800000D03*
X92420000Y-75800000D03*
X95500000Y-75400000D03*
X92420000Y-75400000D03*
X95500000Y-75000000D03*
X92420000Y-75000000D03*
X95500000Y-74600000D03*
X92420000Y-74600000D03*
X95500000Y-74200000D03*
X92420000Y-74200000D03*
X95500000Y-73800000D03*
X92420000Y-73800000D03*
X95500000Y-73400000D03*
X92420000Y-73400000D03*
%TD*%
D15*
%TO.C,C25*%
X165200000Y-116200000D03*
X165200000Y-114300000D03*
%TD*%
D11*
%TO.C,C7*%
X157850000Y-89800000D03*
X159750000Y-89800000D03*
%TD*%
%TO.C,C18*%
X176850000Y-67200000D03*
X178750000Y-67200000D03*
%TD*%
%TO.C,C2*%
X87900000Y-65000000D03*
X89800000Y-65000000D03*
%TD*%
D16*
%TO.C,C13*%
X166600000Y-65650000D03*
X166600000Y-67550000D03*
%TD*%
D17*
%TO.C,U13*%
X181500000Y-69775000D03*
X181000000Y-69775000D03*
X180500000Y-69775000D03*
X180000000Y-69775000D03*
X179500000Y-69775000D03*
X179000000Y-69775000D03*
X178500000Y-69775000D03*
X178000000Y-69775000D03*
X177500000Y-69775000D03*
X177000000Y-69775000D03*
X176500000Y-69775000D03*
X176000000Y-69775000D03*
X175500000Y-69775000D03*
X175000000Y-69775000D03*
X174500000Y-69775000D03*
X174000000Y-69775000D03*
X173500000Y-69775000D03*
X173000000Y-69775000D03*
X172500000Y-69775000D03*
X172000000Y-69775000D03*
X171500000Y-69775000D03*
X171000000Y-69775000D03*
X170500000Y-69775000D03*
X170000000Y-69775000D03*
X169500000Y-69775000D03*
X169000000Y-69775000D03*
X168500000Y-69775000D03*
X168000000Y-69775000D03*
X167500000Y-69775000D03*
X167000000Y-69775000D03*
X166500000Y-69775000D03*
X166000000Y-69775000D03*
X165500000Y-69775000D03*
X165000000Y-69775000D03*
X164500000Y-69775000D03*
X164000000Y-69775000D03*
D18*
X162087500Y-71687500D03*
X162087500Y-72187500D03*
X162087500Y-72687500D03*
X162087500Y-73187500D03*
X162087500Y-73687500D03*
X162087500Y-74187500D03*
X162087500Y-74687500D03*
X162087500Y-75187500D03*
X162087500Y-75687500D03*
X162087500Y-76187500D03*
X162087500Y-76687500D03*
X162087500Y-77187500D03*
X162087500Y-77687500D03*
X162087500Y-78187500D03*
X162087500Y-78687500D03*
X162087500Y-79187500D03*
X162087500Y-79687500D03*
X162087500Y-80187500D03*
X162087500Y-80687500D03*
X162087500Y-81187500D03*
X162087500Y-81687500D03*
X162087500Y-82187500D03*
X162087500Y-82687500D03*
X162087500Y-83187500D03*
X162087500Y-83687500D03*
X162087500Y-84187500D03*
X162087500Y-84687500D03*
X162087500Y-85187500D03*
X162087500Y-85687500D03*
X162087500Y-86187500D03*
X162087500Y-86687500D03*
X162087500Y-87187500D03*
X162087500Y-87687500D03*
X162087500Y-88187500D03*
X162087500Y-88687500D03*
X162087500Y-89187500D03*
D17*
X164000000Y-91100000D03*
X164500000Y-91100000D03*
X165000000Y-91100000D03*
X165500000Y-91100000D03*
X166000000Y-91100000D03*
X166500000Y-91100000D03*
X167000000Y-91100000D03*
X167500000Y-91100000D03*
X168000000Y-91100000D03*
X168500000Y-91100000D03*
X169000000Y-91100000D03*
X169500000Y-91100000D03*
X170000000Y-91100000D03*
X170500000Y-91100000D03*
X171000000Y-91100000D03*
X171500000Y-91100000D03*
X172000000Y-91100000D03*
X172500000Y-91100000D03*
X173000000Y-91100000D03*
X173500000Y-91100000D03*
X174000000Y-91100000D03*
X174500000Y-91100000D03*
X175000000Y-91100000D03*
X175500000Y-91100000D03*
X176000000Y-91100000D03*
X176500000Y-91100000D03*
X177000000Y-91100000D03*
X177500000Y-91100000D03*
X178000000Y-91100000D03*
X178500000Y-91100000D03*
X179000000Y-91100000D03*
X179500000Y-91100000D03*
X180000000Y-91100000D03*
X180500000Y-91100000D03*
X181000000Y-91100000D03*
X181500000Y-91100000D03*
D18*
X183412500Y-89187500D03*
X183412500Y-88687500D03*
X183412500Y-88187500D03*
X183412500Y-87687500D03*
X183412500Y-87187500D03*
X183412500Y-86687500D03*
X183412500Y-86187500D03*
X183412500Y-85687500D03*
X183412500Y-85187500D03*
X183412500Y-84687500D03*
X183412500Y-84187500D03*
X183412500Y-83687500D03*
X183412500Y-83187500D03*
X183412500Y-82687500D03*
X183412500Y-82187500D03*
X183412500Y-81687500D03*
X183412500Y-81187500D03*
X183412500Y-80687500D03*
X183412500Y-80187500D03*
X183412500Y-79687500D03*
X183412500Y-79187500D03*
X183412500Y-78687500D03*
X183412500Y-78187500D03*
X183412500Y-77687500D03*
X183412500Y-77187500D03*
X183412500Y-76687500D03*
X183412500Y-76187500D03*
X183412500Y-75687500D03*
X183412500Y-75187500D03*
X183412500Y-74687500D03*
X183412500Y-74187500D03*
X183412500Y-73687500D03*
X183412500Y-73187500D03*
X183412500Y-72687500D03*
X183412500Y-72187500D03*
X183412500Y-71687500D03*
%TD*%
D19*
%TO.C,L1*%
X159400000Y-114650000D03*
X162200000Y-114650000D03*
%TD*%
D16*
%TO.C,C20*%
X168800000Y-65650000D03*
X168800000Y-67550000D03*
%TD*%
D20*
%TO.C,C16*%
X188200000Y-82600000D03*
X186300000Y-82600000D03*
%TD*%
D21*
%TO.C,D4*%
X155000000Y-80800000D03*
X155000000Y-82675000D03*
%TD*%
D22*
%TO.C,U2*%
X103700000Y-128850000D03*
X105400000Y-128850000D03*
X107100000Y-128850000D03*
D23*
X104325000Y-122125000D03*
X109875000Y-122125000D03*
X104325000Y-117275000D03*
X109875000Y-117275000D03*
D22*
X108800000Y-128850000D03*
X110500000Y-128850000D03*
%TD*%
D15*
%TO.C,C5*%
X152800000Y-115600000D03*
X152800000Y-113700000D03*
%TD*%
D13*
%TO.C,D7*%
X147725000Y-77960000D03*
X149600000Y-77960000D03*
%TD*%
D20*
%TO.C,C23*%
X188150000Y-88400000D03*
X186250000Y-88400000D03*
%TD*%
D24*
%TO.C,U7*%
X148900000Y-59300000D03*
X148900000Y-59950000D03*
X148900000Y-60600000D03*
X150800000Y-60600000D03*
X150800000Y-59300000D03*
%TD*%
D20*
%TO.C,C11*%
X173300000Y-63200000D03*
X171400000Y-63200000D03*
%TD*%
%TO.C,C17*%
X188150000Y-85000000D03*
X186250000Y-85000000D03*
%TD*%
%TO.C,C21*%
X176750000Y-93600000D03*
X174850000Y-93600000D03*
%TD*%
D25*
%TO.C,U6*%
X95400000Y-55600000D03*
X96050000Y-55600000D03*
X96700000Y-55600000D03*
X96700000Y-53700000D03*
X95400000Y-53700000D03*
%TD*%
D26*
%TO.C,RN3*%
X156400000Y-77400000D03*
D27*
X156400000Y-76600000D03*
X156400000Y-75800000D03*
D26*
X156400000Y-75000000D03*
X154600000Y-75000000D03*
D27*
X154600000Y-75800000D03*
X154600000Y-76600000D03*
D26*
X154600000Y-77400000D03*
%TD*%
D28*
%TO.C,J12*%
X86987500Y-90675000D03*
X86987500Y-91475000D03*
X86987500Y-92750000D03*
X86987500Y-93750000D03*
X86987500Y-94250000D03*
X86987500Y-92250000D03*
X86987500Y-96525000D03*
X86987500Y-97325000D03*
X86987500Y-97075000D03*
X86987500Y-96275000D03*
X86987500Y-95750000D03*
X86987500Y-94750000D03*
X86987500Y-93250000D03*
X86987500Y-95250000D03*
X86987500Y-91725000D03*
X86987500Y-90925000D03*
%TD*%
D26*
%TO.C,RN2*%
X189600000Y-80400000D03*
D27*
X189600000Y-79600000D03*
X189600000Y-78800000D03*
D26*
X189600000Y-78000000D03*
X187800000Y-78000000D03*
D27*
X187800000Y-78800000D03*
X187800000Y-79600000D03*
D26*
X187800000Y-80400000D03*
%TD*%
D11*
%TO.C,C10*%
X171200000Y-93600000D03*
X173100000Y-93600000D03*
%TD*%
D13*
%TO.C,D8*%
X147725000Y-81000000D03*
X149600000Y-81000000D03*
%TD*%
D29*
%TO.C,U8*%
X155100000Y-115650000D03*
X156050000Y-115650000D03*
X157000000Y-115650000D03*
X157000000Y-113375000D03*
X155100000Y-113375000D03*
%TD*%
D30*
%TO.C,D9*%
X99737500Y-126400000D03*
X97862500Y-126400000D03*
%TD*%
D11*
%TO.C,C14*%
X157850000Y-81600000D03*
X159750000Y-81600000D03*
%TD*%
D31*
%TO.C,L3*%
X117475000Y-123800000D03*
X128725000Y-123800000D03*
%TD*%
D32*
%TO.C,R14*%
X154400000Y-93600000D03*
X154400000Y-91775000D03*
%TD*%
D33*
%TO.C,J1*%
X89000000Y-80300000D03*
X89000000Y-79800000D03*
X89000000Y-79300000D03*
X89000000Y-78800000D03*
X89000000Y-78300000D03*
X89000000Y-77800000D03*
X89000000Y-77300000D03*
X89000000Y-76800000D03*
X89000000Y-76300000D03*
X89000000Y-75800000D03*
X89000000Y-75300000D03*
X89000000Y-74800000D03*
X89000000Y-74300000D03*
X89000000Y-73800000D03*
X89000000Y-73300000D03*
X89000000Y-72800000D03*
X89000000Y-72300000D03*
X89000000Y-71800000D03*
X89000000Y-71300000D03*
%TD*%
D32*
%TO.C,R11*%
X155000000Y-87050000D03*
X155000000Y-85225000D03*
%TD*%
D34*
%TO.C,R7*%
X154912500Y-60600000D03*
X153087500Y-60600000D03*
%TD*%
D11*
%TO.C,C22*%
X157900000Y-73000000D03*
X159800000Y-73000000D03*
%TD*%
D35*
%TO.C,FB1*%
X150400000Y-115712500D03*
X150400000Y-113587500D03*
%TD*%
D11*
%TO.C,C1*%
X87900000Y-61990000D03*
X89800000Y-61990000D03*
%TD*%
D36*
%TO.C,RN4*%
X83400000Y-86700000D03*
X84200000Y-86700000D03*
X85000000Y-86700000D03*
X85800000Y-86700000D03*
X85800000Y-85000000D03*
X85000000Y-85000000D03*
X84200000Y-85000000D03*
X83400000Y-85000000D03*
%TD*%
D20*
%TO.C,C15*%
X180550000Y-93600000D03*
X178650000Y-93600000D03*
%TD*%
D37*
%TO.C,SW1*%
X149557500Y-91250000D03*
X149557500Y-94450000D03*
D38*
X147807500Y-91850000D03*
X151307500Y-91850000D03*
X147807500Y-93850000D03*
X151307500Y-93850000D03*
%TD*%
D13*
%TO.C,D3*%
X186262500Y-94200000D03*
X188137500Y-94200000D03*
%TD*%
D39*
%TO.C,RN1*%
X153200000Y-119950000D03*
D40*
X154000000Y-119950000D03*
X154800000Y-119950000D03*
D39*
X155600000Y-119950000D03*
X155600000Y-118150000D03*
D40*
X154800000Y-118150000D03*
X154000000Y-118150000D03*
D39*
X153200000Y-118150000D03*
%TD*%
D16*
%TO.C,C12*%
X186000000Y-76050000D03*
X186000000Y-77950000D03*
%TD*%
D41*
%TO.C,C3*%
X89425000Y-120800000D03*
X96375000Y-120800000D03*
%TD*%
D13*
%TO.C,D6*%
X147725000Y-74920000D03*
X149600000Y-74920000D03*
%TD*%
D41*
%TO.C,C4*%
X134225000Y-120700000D03*
X141175000Y-120700000D03*
%TD*%
D42*
%TO.C,XTAL1*%
X173100002Y-65600000D03*
X171600000Y-65600000D03*
X171600000Y-66799998D03*
X173100002Y-66799998D03*
%TD*%
D30*
%TO.C,D2*%
X154957500Y-57800000D03*
X153082500Y-57800000D03*
%TD*%
M02*
