M48
; DRILL file {KiCad 8.0.3} date 2024-09-20T13:19:40-0500
; FORMAT={-:-/ absolute / metric / decimal}
; #@! TF.CreationDate,2024-09-20T13:19:40-05:00
; #@! TF.GenerationSoftware,Kicad,Pcbnew,8.0.3
; #@! TF.FileFunction,Plated,1,2,PTH
FMAT,2
METRIC
; #@! TA.AperFunction,Plated,PTH,ViaDrill
T1C0.300
; #@! TA.AperFunction,Plated,PTH,ComponentDrill
T2C0.500
; #@! TA.AperFunction,Plated,PTH,ComponentDrill
T3C0.600
; #@! TA.AperFunction,Plated,PTH,ComponentDrill
T4C0.900
; #@! TA.AperFunction,Plated,PTH,ComponentDrill
T5C1.000
; #@! TA.AperFunction,Plated,PTH,ComponentDrill
T6C1.520
%
G90
G05
T1
X84.7Y-96.3
X85.2Y-92.0
X86.0Y-79.0
X86.2Y-72.6
X86.2Y-76.0
X86.8Y-120.8
X88.3Y-94.9
X90.1Y-93.2
X91.2Y-74.2
X93.8Y-85.8
X93.8Y-91.8
X93.84Y-76.36
X94.2Y-73.55
X94.2Y-87.0
X94.218Y-74.899
X94.44Y-76.96
X96.0Y-52.6
X97.2Y-91.0
X97.5Y-82.1
X112.6Y-79.0
X113.4Y-74.4
X123.2Y-74.8
X124.4Y-88.2
X124.6Y-84.4
X124.703Y-85.973
X124.8Y-77.8
X124.837Y-86.766
X125.0Y-74.0
X125.0Y-87.6
X125.12Y-88.8
X125.167Y-85.261
X125.2Y-79.0
X125.2Y-82.2
X127.2Y-73.6
X127.4Y-76.4
X127.46Y-83.116
X127.481Y-80.59
X127.6Y-79.0
X127.601Y-81.432
X127.75Y-75.52
X127.835Y-86.365
X127.962Y-82.17
X128.067Y-85.597
X128.237Y-87.268
X128.326Y-84.297
X128.449Y-83.456
X130.4Y-75.0
X131.0Y-67.0
X132.0Y-81.8
X134.2Y-115.8
X135.0Y-83.8
X135.2Y-103.2
X136.2Y-77.8
X136.8Y-82.0
X143.0Y-82.0
X143.0Y-84.0
X143.4Y-79.8
X143.8Y-95.4
X144.6Y-69.5
X147.8Y-60.4
X150.2Y-118.4
X151.4Y-62.0
X153.4Y-111.8
X154.2Y-113.65
X154.2Y-117.05
X154.8Y-121.0
X155.6Y-93.6
X156.8Y-88.25
X157.6Y-118.0
X158.2Y-111.8
X158.85Y-89.8
X160.0Y-86.2
X160.0Y-87.25
X160.0Y-88.1
X160.2Y-79.6
X163.0Y-118.0
X163.2Y-111.8
X163.4Y-87.8
X163.6Y-78.8
X164.0Y-73.2
X164.0Y-82.8
X164.2Y-80.2
X168.4Y-71.2
X168.4Y-94.2
X169.4Y-78.8
X169.8Y-89.2
X169.9Y-93.4
X170.5Y-66.0
X170.687Y-92.506
X171.504Y-92.273
X172.8Y-100.2
X173.0Y-92.375
X173.155Y-89.755
X173.2Y-95.2
X173.4Y-71.6
X173.8Y-96.6
X174.6Y-67.6
X175.2Y-65.0
X175.2Y-94.8
X175.4Y-71.4
X177.157Y-68.424
X177.2Y-71.6
X178.0Y-89.2
X179.2Y-89.4
X179.4Y-71.4
X179.6Y-82.2
X181.727Y-85.339
X181.8Y-73.6
X181.8Y-77.0
X182.0Y-80.6
X182.0Y-83.5
X182.0Y-93.5
X182.123Y-84.587
X184.7Y-79.691
X185.077Y-86.052
X185.119Y-85.138
X185.122Y-86.901
X185.151Y-88.201
X185.898Y-87.189
X189.0Y-84.65
X190.0Y-92.7
X190.8Y-84.7
X191.5Y-82.6
X191.7Y-78.5
X191.8Y-74.3
X192.538Y-85.05
X192.8Y-88.45
X192.839Y-87.15
X193.2Y-91.0
X193.3Y-100.8
X193.5Y-86.6
X193.536Y-85.129
X193.6Y-88.0
X193.6Y-89.3
X200.35Y-83.7
X201.0Y-91.7
X202.6Y-85.2
X203.1Y-85.9
X203.4Y-86.7
X203.4Y-87.6
X203.8Y-85.1
X204.1Y-73.1
X204.5Y-93.9
X204.6Y-63.7
T2
X159.0Y-60.6
X165.0Y-112.05
T5
X98.9Y-94.6
X103.72Y-52.26
X103.72Y-54.8
X106.26Y-52.26
X106.26Y-54.8
X108.8Y-52.26
X108.8Y-54.8
X111.34Y-52.26
X111.34Y-54.8
X113.88Y-52.26
X113.88Y-54.8
X116.42Y-52.26
X116.42Y-54.8
X118.96Y-52.26
X118.96Y-54.8
X126.66Y-54.6
X129.2Y-54.6
X131.74Y-54.6
X138.66Y-61.14
X138.66Y-63.68
X138.66Y-66.22
X138.66Y-68.76
X138.66Y-71.3
X138.66Y-73.84
X138.66Y-76.38
X138.66Y-78.92
X138.66Y-81.46
X138.66Y-84.0
X138.66Y-86.54
X138.66Y-89.08
X138.66Y-91.62
X138.66Y-94.16
X138.66Y-96.7
X138.66Y-99.24
X138.66Y-101.78
X138.66Y-104.32
X138.66Y-106.86
X138.66Y-109.4
X141.2Y-61.14
X141.2Y-63.68
X141.2Y-66.22
X141.2Y-68.76
X141.2Y-71.3
X141.2Y-73.84
X141.2Y-76.38
X141.2Y-78.92
X141.2Y-81.46
X141.2Y-84.0
X141.2Y-86.54
X141.2Y-89.08
X141.2Y-91.62
X141.2Y-94.16
X141.2Y-96.7
X141.2Y-99.24
X141.2Y-101.78
X141.2Y-104.32
X141.2Y-106.86
X141.2Y-109.4
X157.46Y-97.8
X160.0Y-97.8
X162.54Y-97.8
X165.08Y-97.8
X167.62Y-97.8
X172.32Y-97.8
X174.86Y-97.8
X177.4Y-97.8
X177.515Y-63.6
X179.94Y-97.8
X180.055Y-63.6
X182.48Y-97.8
X182.595Y-63.6
X185.135Y-63.6
X187.675Y-63.6
X192.2Y-93.0
X194.7Y-80.8
T6
X84.2Y-108.06
X84.2Y-113.14
X210.8Y-50.8
X210.8Y-55.88
X210.8Y-61.8
X210.8Y-66.88
X210.8Y-72.66
X210.8Y-77.74
X210.8Y-83.66
X210.8Y-88.74
X210.8Y-94.56
X210.8Y-99.64
X210.8Y-105.56
X210.8Y-110.64
X210.8Y-116.3
X210.8Y-121.38
X210.8Y-127.2
X210.8Y-132.28
T3
G00X82.537Y-89.68
M15
G01X81.737Y-89.68
M16
G05
G00X82.537Y-98.32
M15
G01X81.737Y-98.32
M16
G05
G00X86.837Y-89.68
M15
G01X85.737Y-89.68
M16
G05
G00X86.837Y-98.32
M15
G01X85.737Y-98.32
M16
G05
T4
G00X82.71Y-68.55
M15
G01X81.91Y-68.55
M16
G05
G00X82.71Y-83.05
M15
G01X81.91Y-83.05
M16
G05
G00X89.17Y-68.55
M15
G01X87.37Y-68.55
M16
G05
G00X89.17Y-83.05
M15
G01X87.37Y-83.05
M16
G05
M30
